<svg xmlns="http://www.w3.org/2000/svg" width="32" height="32" version="1"><path fill="#fff" fill-rule="evenodd" d="M16 0a16 16 0 00-5.05 31.18c.8.14 1.05-.33 1.05-.76v-2.77c-4.45.96-5.37-2.1-5.37-2.1-.73-1.86-1.78-2.35-1.78-2.35-1.45-1 .1-.97.1-.97 1.62.1 2.46 1.65 2.46 1.65 1.45 2.44 3.77 1.73 4.68 1.33a3.46 3.46 0 011-2.12c-3.54-.4-7.27-1.78-7.27-7.9a6.2 6.2 0 011.65-4.3c-.16-.4-.7-2.03.16-4.24 0 0 1.36-.43 4.4 1.65a15.08 15.08 0 018-.02c3.07-2.06 4.4-1.64 4.4-1.64.9 2.2.34 3.83.18 4.24a6.2 6.2 0 011.64 4.3c0 6.14-3.73 7.5-7.3 7.88.58.5 1.1 1.46 1.1 2.95v4.44c0 .43.26.9 1.07.74A16.07 16.07 0 0032 16 16 16 0 0016 0z" clip-rule="evenodd"/></svg>